P3
# CREATOR: GIMP PNM Filter Version 1.1
9 7
255
0 255 222
0 255 222
0 255 222
0 255 222
0 255 222
0 255 222
0 255 222
0 255 222
0 255 222
0 255 222
255 0 210
0 255 222
255 0 210
0 255 222
255 0 210
255 0 210
255 0 210
0 255 222
0 255 222
255 0 210
0 255 222
255 0 210
0 255 222
0 255 222
255 0 210
0 255 222
0 255 222
0 255 222
255 0 210
255 0 210
255 0 210
0 255 222
0 255 222
255 0 210
0 255 222
0 255 222
0 255 222
255 0 210
0 255 222
255 0 210
0 255 222
0 255 222
255 0 210
0 255 222
0 255 222
0 255 222
255 0 210
0 255 222
255 0 210
0 255 222
255 0 210
255 0 210
255 0 210
0 255 222
0 255 222
0 255 222
0 255 222
0 255 222
0 255 222
0 255 222
0 255 222
0 255 222
0 255 222
